<svg xmlns="http://www.w3.org/2000/svg" width="1280" height="660" viewBox="0 0 1280 660" role="img">
<rect width="1280" height="660" fill="#f7f9f8"/>
<text x="64" y="68" font-family="Arial, sans-serif" font-size="30" font-weight="700" fill="#142624">真实历史模型切换审查</text>
<text x="64" y="102" font-family="Arial, sans-serif" font-size="18" fill="#526461">相同 4 个任务 × 6 种方法；描述性聚合，不是逐样本配对检验</text>
<rect x="888" y="48" width="18" height="18" rx="3" fill="#64748b"/>
<text x="916" y="63" font-family="Arial, sans-serif" font-size="16" fill="#334155">Qwen2.5-7B</text>
<rect x="1058" y="48" width="18" height="18" rx="3" fill="#0f766e"/>
<text x="1086" y="63" font-family="Arial, sans-serif" font-size="16" fill="#334155">Mistral-7B</text>
<text x="64" y="171" font-family="Arial, sans-serif" font-size="18" font-weight="600" fill="#1f3532">bbh3</text>
<rect x="300" y="146" width="562.52" height="32" rx="4" fill="#64748b"/>
<text x="1170" y="169" text-anchor="end" font-family="Arial, sans-serif" font-size="17" fill="#334155">0.662</text>
<rect x="300" y="188" width="388.97" height="32" rx="4" fill="#0f766e"/>
<text x="1170" y="211" text-anchor="end" font-family="Arial, sans-serif" font-size="17" fill="#0f5f59">0.458</text>
<text x="64" y="287" font-family="Arial, sans-serif" font-size="18" font-weight="600" fill="#1f3532">commonsenseqa</text>
<rect x="300" y="262" width="311.00" height="32" rx="4" fill="#64748b"/>
<text x="1170" y="285" text-anchor="end" font-family="Arial, sans-serif" font-size="17" fill="#334155">0.366</text>
<rect x="300" y="304" width="438.34" height="32" rx="4" fill="#0f766e"/>
<text x="1170" y="327" text-anchor="end" font-family="Arial, sans-serif" font-size="17" fill="#0f5f59">0.516</text>
<text x="64" y="403" font-family="Arial, sans-serif" font-size="18" font-weight="600" fill="#1f3532">gsm8k</text>
<rect x="300" y="378" width="181.51" height="32" rx="4" fill="#64748b"/>
<text x="1170" y="401" text-anchor="end" font-family="Arial, sans-serif" font-size="17" fill="#334155">0.214</text>
<rect x="300" y="420" width="213.00" height="32" rx="4" fill="#0f766e"/>
<text x="1170" y="443" text-anchor="end" font-family="Arial, sans-serif" font-size="17" fill="#0f5f59">0.251</text>
<text x="64" y="519" font-family="Arial, sans-serif" font-size="18" font-weight="600" fill="#1f3532">svamp</text>
<rect x="300" y="494" width="447.02" height="32" rx="4" fill="#64748b"/>
<text x="1170" y="517" text-anchor="end" font-family="Arial, sans-serif" font-size="17" fill="#334155">0.526</text>
<rect x="300" y="536" width="472.92" height="32" rx="4" fill="#0f766e"/>
<text x="1170" y="559" text-anchor="end" font-family="Arial, sans-serif" font-size="17" fill="#0f5f59">0.556</text>
<line x1="64" y1="614" x2="1216" y2="614" stroke="#d7e0de"/>
<text x="64" y="642" font-family="Arial, sans-serif" font-size="16" fill="#526461">总体均值接近，但任务切片方向不同，因此结论为需要复核。</text>
</svg>
